<mxfile host="app.diagrams.net" agent="Mozilla/5.0 (Windows NT 10.0; Win64; x64) AppleWebKit/537.36 (KHTML, like Gecko) Chrome/116.0.0.0 Safari/537.36" version="24.7.17">
  <diagram name="第 1 页" id="_wWxP3uSc7ebeDDbSqia">
    <mxGraphModel dx="583" dy="297" grid="1" gridSize="10" guides="1" tooltips="1" connect="1" arrows="1" fold="1" page="1" pageScale="1" pageWidth="827" pageHeight="1169" math="0" shadow="0">
      <root>
        <mxCell id="0" />
        <mxCell id="1" parent="0" />
        <mxCell id="gBt0IF4fnma7MxqNQ78V-4" style="edgeStyle=orthogonalEdgeStyle;rounded=0;orthogonalLoop=1;jettySize=auto;html=1;exitX=0.5;exitY=1;exitDx=0;exitDy=0;entryX=0.5;entryY=0;entryDx=0;entryDy=0;" edge="1" parent="1" source="gBt0IF4fnma7MxqNQ78V-1" target="gBt0IF4fnma7MxqNQ78V-3">
          <mxGeometry relative="1" as="geometry" />
        </mxCell>
        <mxCell id="gBt0IF4fnma7MxqNQ78V-5" value="write/delete" style="edgeLabel;html=1;align=center;verticalAlign=middle;resizable=0;points=[];" vertex="1" connectable="0" parent="gBt0IF4fnma7MxqNQ78V-4">
          <mxGeometry x="-0.088" relative="1" as="geometry">
            <mxPoint x="-10" y="-3" as="offset" />
          </mxGeometry>
        </mxCell>
        <mxCell id="gBt0IF4fnma7MxqNQ78V-1" value="pid" style="rounded=0;whiteSpace=wrap;html=1;" vertex="1" parent="1">
          <mxGeometry x="292" y="390" width="56" height="30" as="geometry" />
        </mxCell>
        <mxCell id="gBt0IF4fnma7MxqNQ78V-11" style="edgeStyle=orthogonalEdgeStyle;rounded=0;orthogonalLoop=1;jettySize=auto;html=1;exitX=0.5;exitY=1;exitDx=0;exitDy=0;entryX=0.5;entryY=0;entryDx=0;entryDy=0;" edge="1" parent="1" source="gBt0IF4fnma7MxqNQ78V-2" target="gBt0IF4fnma7MxqNQ78V-10">
          <mxGeometry relative="1" as="geometry" />
        </mxCell>
        <mxCell id="gBt0IF4fnma7MxqNQ78V-12" value="connect" style="edgeLabel;html=1;align=center;verticalAlign=middle;resizable=0;points=[];" vertex="1" connectable="0" parent="gBt0IF4fnma7MxqNQ78V-11">
          <mxGeometry x="-0.1289" relative="1" as="geometry">
            <mxPoint x="-28" as="offset" />
          </mxGeometry>
        </mxCell>
        <mxCell id="gBt0IF4fnma7MxqNQ78V-2" value="pid" style="rounded=0;whiteSpace=wrap;html=1;" vertex="1" parent="1">
          <mxGeometry x="440" y="390" width="56" height="30" as="geometry" />
        </mxCell>
        <mxCell id="gBt0IF4fnma7MxqNQ78V-7" style="edgeStyle=orthogonalEdgeStyle;rounded=0;orthogonalLoop=1;jettySize=auto;html=1;exitX=1;exitY=0.5;exitDx=0;exitDy=0;entryX=1;entryY=0.5;entryDx=0;entryDy=0;" edge="1" parent="1" source="gBt0IF4fnma7MxqNQ78V-3" target="gBt0IF4fnma7MxqNQ78V-1">
          <mxGeometry relative="1" as="geometry" />
        </mxCell>
        <mxCell id="gBt0IF4fnma7MxqNQ78V-8" value="read" style="edgeLabel;html=1;align=center;verticalAlign=middle;resizable=0;points=[];" vertex="1" connectable="0" parent="gBt0IF4fnma7MxqNQ78V-7">
          <mxGeometry x="0.118" y="2" relative="1" as="geometry">
            <mxPoint y="3" as="offset" />
          </mxGeometry>
        </mxCell>
        <mxCell id="gBt0IF4fnma7MxqNQ78V-3" value="fd" style="ellipse;whiteSpace=wrap;html=1;" vertex="1" parent="1">
          <mxGeometry x="290" y="470" width="60" height="30" as="geometry" />
        </mxCell>
        <mxCell id="gBt0IF4fnma7MxqNQ78V-16" style="edgeStyle=orthogonalEdgeStyle;rounded=0;orthogonalLoop=1;jettySize=auto;html=1;exitX=0.5;exitY=1;exitDx=0;exitDy=0;" edge="1" parent="1" source="gBt0IF4fnma7MxqNQ78V-9" target="gBt0IF4fnma7MxqNQ78V-15">
          <mxGeometry relative="1" as="geometry" />
        </mxCell>
        <mxCell id="gBt0IF4fnma7MxqNQ78V-17" value="clone/create" style="edgeLabel;html=1;align=center;verticalAlign=middle;resizable=0;points=[];" vertex="1" connectable="0" parent="gBt0IF4fnma7MxqNQ78V-16">
          <mxGeometry x="-0.1467" y="1" relative="1" as="geometry">
            <mxPoint x="1" as="offset" />
          </mxGeometry>
        </mxCell>
        <mxCell id="gBt0IF4fnma7MxqNQ78V-9" value="pid" style="rounded=0;whiteSpace=wrap;html=1;" vertex="1" parent="1">
          <mxGeometry x="600" y="390" width="56" height="30" as="geometry" />
        </mxCell>
        <mxCell id="gBt0IF4fnma7MxqNQ78V-13" style="edgeStyle=orthogonalEdgeStyle;rounded=0;orthogonalLoop=1;jettySize=auto;html=1;exitX=1;exitY=0.5;exitDx=0;exitDy=0;entryX=1;entryY=0.5;entryDx=0;entryDy=0;" edge="1" parent="1" source="gBt0IF4fnma7MxqNQ78V-10" target="gBt0IF4fnma7MxqNQ78V-2">
          <mxGeometry relative="1" as="geometry" />
        </mxCell>
        <mxCell id="gBt0IF4fnma7MxqNQ78V-14" value="recv" style="edgeLabel;html=1;align=center;verticalAlign=middle;resizable=0;points=[];" vertex="1" connectable="0" parent="gBt0IF4fnma7MxqNQ78V-13">
          <mxGeometry x="-0.0357" relative="1" as="geometry">
            <mxPoint as="offset" />
          </mxGeometry>
        </mxCell>
        <mxCell id="gBt0IF4fnma7MxqNQ78V-10" value="socket" style="rhombus;whiteSpace=wrap;html=1;" vertex="1" parent="1">
          <mxGeometry x="432" y="465" width="72" height="35" as="geometry" />
        </mxCell>
        <mxCell id="gBt0IF4fnma7MxqNQ78V-18" style="edgeStyle=orthogonalEdgeStyle;rounded=0;orthogonalLoop=1;jettySize=auto;html=1;exitX=1;exitY=0.5;exitDx=0;exitDy=0;entryX=1;entryY=0.5;entryDx=0;entryDy=0;" edge="1" parent="1" source="gBt0IF4fnma7MxqNQ78V-15" target="gBt0IF4fnma7MxqNQ78V-9">
          <mxGeometry relative="1" as="geometry" />
        </mxCell>
        <mxCell id="gBt0IF4fnma7MxqNQ78V-19" value="? C&amp;amp;C" style="edgeLabel;html=1;align=center;verticalAlign=middle;resizable=0;points=[];" vertex="1" connectable="0" parent="gBt0IF4fnma7MxqNQ78V-18">
          <mxGeometry x="-0.1235" y="1" relative="1" as="geometry">
            <mxPoint x="5" y="10" as="offset" />
          </mxGeometry>
        </mxCell>
        <mxCell id="gBt0IF4fnma7MxqNQ78V-15" value="pid" style="rounded=0;whiteSpace=wrap;html=1;" vertex="1" parent="1">
          <mxGeometry x="600" y="465" width="56" height="30" as="geometry" />
        </mxCell>
        <mxCell id="gBt0IF4fnma7MxqNQ78V-23" style="edgeStyle=orthogonalEdgeStyle;rounded=0;orthogonalLoop=1;jettySize=auto;html=1;exitX=0.5;exitY=1;exitDx=0;exitDy=0;entryX=0.5;entryY=0;entryDx=0;entryDy=0;" edge="1" parent="1" source="gBt0IF4fnma7MxqNQ78V-20" target="gBt0IF4fnma7MxqNQ78V-22">
          <mxGeometry relative="1" as="geometry" />
        </mxCell>
        <mxCell id="gBt0IF4fnma7MxqNQ78V-24" value="exec" style="edgeLabel;html=1;align=center;verticalAlign=middle;resizable=0;points=[];" vertex="1" connectable="0" parent="gBt0IF4fnma7MxqNQ78V-23">
          <mxGeometry x="-0.1444" y="-1" relative="1" as="geometry">
            <mxPoint x="-23" as="offset" />
          </mxGeometry>
        </mxCell>
        <mxCell id="gBt0IF4fnma7MxqNQ78V-20" value="pid" style="rounded=0;whiteSpace=wrap;html=1;" vertex="1" parent="1">
          <mxGeometry x="378" y="650" width="52" height="30" as="geometry" />
        </mxCell>
        <mxCell id="gBt0IF4fnma7MxqNQ78V-21" value="For a detection point: &lt;br&gt;eg. execute a file downloadedfrom a low integrity network entity&amp;nbsp;" style="text;html=1;align=center;verticalAlign=middle;resizable=0;points=[];autosize=1;strokeColor=none;fillColor=none;" vertex="1" parent="1">
          <mxGeometry x="190" y="565" width="360" height="40" as="geometry" />
        </mxCell>
        <mxCell id="gBt0IF4fnma7MxqNQ78V-22" value="fd" style="ellipse;whiteSpace=wrap;html=1;" vertex="1" parent="1">
          <mxGeometry x="374" y="730" width="60" height="30" as="geometry" />
        </mxCell>
      </root>
    </mxGraphModel>
  </diagram>
</mxfile>
